<svg xmlns="http://www.w3.org/2000/svg" viewBox="0 0 1132.55 842.62"><defs><style>.cls-1{fill:none;}.cls-2{fill:#95ca5b;}.cls-2,.cls-3{fill-rule:evenodd;}.cls-3{fill:#e6e7e8;}</style></defs><title>green-logo</title><g id="Layer_2" data-name="Layer 2"><g id="Layer_1-2" data-name="Layer 1"><rect class="cls-1" width="1132.55" height="842.62"/><path class="cls-2" d="M101.1,656.89c0-44,35-86.78,111-65.49q0,13.8.05,27.6c-50.08-22.43-79.69,1.46-79.69,36.19.09,11.9,2.48,21.9,7.67,29.15,10.77,15,37.44,20.94,49.12,9.36V669.57H162.4V645.2h55.81l-.06,65.3c-14.22,11-50.1,18.26-77.69,7.49-26.48-10.32-39.36-27.88-39.36-61.1Z"/><path class="cls-2" d="M271.39,610.72c-2.26-.11-3.8,1.36-3.78,3v30.1c0,1.44.68,3.54,2.81,3.53,29,.65,31.52-9.79,31.56-18.89-.21-13.24-5.28-18.32-30.59-17.79ZM237,588.05H295.1c18.36,0,39.16,12.44,39,36.49,0,16.25-10.32,31.52-28.46,37,20.25,15.44,29.41,40,45,60.7h-30c-15.27-4.06-14.46-22-34.85-46.32-4.71-5.32-11.38-5.47-17.89-4.63v50.94H237Z"/><path class="cls-2" d="M355.7,587.76V722.3h78.9V697.86H388.85c-2.43-.11-4.1-1.5-4.09-3.53V670.51c0-2.4,1.11-3.61,3.63-3.63h39.82v-24.4h-40.1c-1.75,0-3.17-.85-3.16-2.68v-23c-.07-2.09.92-4.58,3.16-4.63H431.5V587.76Z"/><path class="cls-2" d="M449.06,587.76V722.3H528V697.86H482.21c-2.43-.11-4.09-1.5-4.08-3.53V670.51c0-2.4,1.1-3.61,3.62-3.63h39.82v-24.4H481.48c-1.76,0-3.18-.85-3.17-2.68v-23c-.07-2.09.92-4.58,3.17-4.63h43.38V587.76Z"/><path class="cls-2" d="M575.4,587.76l59.49,91.06V539.05c-.06-3.06-1.62-7.09-4.57-7.16-64.08-3.79-108-44.84-106.06-134.54,1-43.39,26.61-85.82,56.11-132.47,28.88-45.66,61.45-95.43,83.06-148.5v27.24C617.69,229.8,579.88,283.79,551.74,335c-11.11,20.22-14.81,42.28-18.12,63.59-2.39,57.47,22,118.59,96.64,123.41,4.45-.07,5.09-2.36,5.12-5.33v-107c0-2.12-1.68-3.48-4-3.53h-6.64c-3-.06-5.06-2.62-5.12-5.67a5.15,5.15,0,0,1,5.12-5.42h34.62a4.73,4.73,0,0,1,4.45,4.75V722.45H635l-63.36-94.07v93.88H543.8V587.76Z"/><path class="cls-3" d="M691.19,536.5c.07-2.81.39-4.17,3.34-3.93,59.94,3.76,129.74-20.42,128-135.22-1-43.39-26.6-85.82-56.1-132.47-28.88-45.66-61.46-95.43-83.06-148.5v27.24C729.12,229.8,769.3,282.55,795.06,335c39.7,80.76,11.68,193.64-99.65,186.94-4.45-.07-4.31-2.85-4.34-5.81,0-35.67.19-245.37.19-281L683,235l1.1,494.34h7c-.23-68.35,0-128.49.06-192.86Z"/><path class="cls-3" d="M724.12,680.87c4.14-5.89,15.19-15.73,26.4-25.57,7-5.51,10.61-5.1,13.08-2.9,2.81,2.52-.49,9-4.32,13.27a86.38,86.38,0,0,1-31,24.62c-5.26,2.23-8.93-2.52-4.2-9.42Zm124.6,0c4.15-5.89,15.19-15.73,26.4-25.57,7-5.51,10.61-5.1,13.08-2.9,2.81,2.52-.49,9-4.32,13.27a86.44,86.44,0,0,1-31,24.62C847.67,692.52,844,687.77,848.72,680.87Zm160.9-27.16-18.4,18.52c-2.65,2.49.09,3.27,2.71,2.23,8.5-3.3,18-7.91,22.39-14.66C1022.37,650.73,1014,649.54,1009.62,653.71Zm6.16-6.73c-8.34,1.59-13.26,3.79-20.62,7.32-17.26,7.93-35.07,33.88-56.6,36.68-10.14,1.16-10.37-4.63-9-8.89,2.7-8.65,15.33-25,25.29-30.34,10-5,7.61,1.82,3.75,9.09-2.56,5,3.74,7,6.66,4.68s4.41-4.21,5.85-8.9c2.44-8.09-6.09-10.81-15.36-9.28-9.34,2-16.47,8-26.58,14-15,8.79-21.77,15.64-34.4,24.69-8.9,5.71-9-1-4.18-7l22.15-28.39c4.86-5.91-6.26-5.1-11.58-1.08-3,2.19-4.23,3.45-7.26,5.64.31-7.13-5.65-9.32-11.87-8.22-15.19,2-27.7,9.91-37.53,17.79-17.71,14.1-25.91,22.06-33.51,23-9.46,1.52,3.25-16.7,9.38-25.23,23.65-32.9,40.36-52,67.25-81,11-11.5-4.75-8.2-10.93-.51l-37.61,42.71c-24.07,26.58-43.5,43.07-68.5,62.62-6.91,4.9-9.3-.18-3.84-6.54l23-29.39c2.84-3.32-1.9-4.42-6.06-3.26-5.85,2-8.32,5.13-12.46,7.89-1.16-6.9-6.15-10.09-16.82-7.55-19.15,4.63-37.57,20.53-41.92,31.8-2.43,6.58-2.74,16.15,9.87,15.72,9.12-.41,18.18-6.3,26.81-12.55-.91,8.45-1.28,12.57,11.82,12.12,10.65-.54,30.28-20,42.17-30.16-7.41,12.69-12.6,21.25-11.22,26.94,1.22,4.48,9.7,6.09,18.78,1.38,10-4.77,16.36-9.37,26.68-17.59-4.16,8.27-7.31,18.43,7.05,19.88,7.3.51,20.47-6.72,28.49-12.74-3.8,11.26,5.62,15.07,11.45,12.92,13.9-5,26.69-19.21,35.1-23.88-6.09,10.52-9.45,23.54,7.74,24.31,25,.26,39.11-16.66,49-23.28-5.53,9.59-7.15,19.24,2.43,23.09,13.73,4.55,40-6.25,56.55-25.1,1.7-1.63,1.7-4.15-.74-2.44-10.94,9.81-23,18.4-34.66,22.66-9.65,2.72-15.19-.15-13.39-7.17,1.94-8.28,11.94-4,33.12-17.57a36.85,36.85,0,0,0,7.62-6.93C1032.49,653,1028.55,645,1015.78,647Z"/><polygon class="cls-3" points="726.56 705.59 728.33 705.59 728.33 726.12 726.56 726.12 726.56 716.62 715.23 716.62 715.23 726.12 713.46 726.12 713.46 705.59 715.23 705.59 715.23 714.85 726.56 714.85 726.56 705.59"/><polygon class="cls-3" points="758.12 705.57 759.89 705.57 765.45 705.57 765.45 707.34 759.89 707.34 759.89 726.11 758.12 726.11 758.12 707.34 752.56 707.34 752.56 705.57 758.12 705.57"/><polygon class="cls-3" points="768.91 705.6 770.68 705.6 778.52 705.6 778.52 707.37 770.68 707.37 770.68 714.99 777.66 714.99 777.66 716.75 770.68 716.75 770.68 724.37 778.52 724.37 778.52 726.13 770.68 726.13 768.91 726.13 768.91 724.37 768.91 716.75 768.91 714.99 768.91 707.37 768.91 705.6"/><polygon class="cls-3" points="783.64 726.13 783.64 724.37 783.64 705.6 785.4 705.6 785.4 724.37 793.26 724.37 793.26 726.13 785.4 726.13 783.64 726.13"/><path class="cls-3" d="M846.44,724.75h0l7.44-19.14Zm9-18.54.08,0,0,.1Z"/><path class="cls-3" d="M850.09,720.21,847.86,726H846l7.89-20.38h1.32L863.07,726h-1.89L859,720.21Zm4.43-11.43-3.75,9.67h7.5Z"/><path class="cls-3" d="M908.26,720.21,906,726h-1.89L912,705.6h1.32L921.24,726h-1.89l-2.23-5.77Zm4.43-11.43-3.75,9.67h7.5Z"/><polygon class="cls-3" points="885.09 705.65 886.85 705.65 899.13 723.07 899.13 705.57 900.89 705.57 900.89 726.14 899.13 726.14 886.85 708.72 886.85 726.18 885.09 726.18 885.09 705.65"/><path class="cls-3" d="M865.49,719.74a6.51,6.51,0,0,0,6.88,6.58c6,0,7.48-4.09,7.51-6.58V705.58h-1.76v14.16c0,2.73-2.31,4.86-5.73,4.9a5.17,5.17,0,0,1-5.14-4.9V705.58h-1.76Z"/><path class="cls-3" d="M742,724.72c4.32,0,7.83-3.88,7.83-8.67s-3.51-8.67-7.83-8.67-7.82,3.89-7.82,8.67,3.5,8.67,7.82,8.67Zm0,1.81c5.23,0,9.46-4.69,9.46-10.48s-4.23-10.48-9.46-10.48-9.46,4.69-9.46,10.48S736.78,726.53,742,726.53Z"/><path class="cls-3" d="M842.9,708.29v-1.78a7.78,7.78,0,0,0-4-.94c-2.82-.08-6.65.93-6.83,4.9-.07,6.29,10,6.8,10,11.19-.07,2.28-2.12,2.71-4.49,2.72a5.05,5.05,0,0,1-3.22-1l-2.24.28c.2,1.15,2.95,2.53,4.76,2.48,4.23.06,7.11-1.45,7.16-4.53,0-6.06-9.8-6.94-9.87-11,0-1.82,1.56-3.3,4.82-3.28a13.66,13.66,0,0,1,3.92.95Z"/><path class="cls-3" d="M816,722.35a8.13,8.13,0,0,1-5.31,2c-2.77,0-5-1.78-5-3.55.17-2.6,1.33-2.88,4.14-4.56Zm1.35-1.14c1.4-1.78,1.54-3.28,1.77-5.93h1.68a10.69,10.69,0,0,1-2.18,7.19l2.49,2.44,1.25,1.25h-2.49l-2.6-2.55a10.32,10.32,0,0,1-6.87,2.54c-3.94-.1-6.55-2.59-6.47-5.32.1-3.19,1.76-4.32,4.59-5.83l-1.19-1.17c-2.77-2.81-1.25-8.27,4.08-8.23,3.32,0,4.92,2.06,5,4.58-.05,3.14-2.8,3.73-5,5.13Zm-8.78-8.62,1.54,1.51.06.06c1.86-1,4.47-1.76,4.43-4-.13-1.62-1.14-2.73-3.29-2.82A3.25,3.25,0,0,0,808.56,712.59Z"/></g></g></svg>