<?xml version="1.0" encoding="utf-8"?>
<!-- Generator: Adobe Illustrator 16.0.0, SVG Export Plug-In . SVG Version: 6.00 Build 0)  -->
<!DOCTYPE svg PUBLIC "-//W3C//DTD SVG 1.1//EN" "http://www.w3.org/Graphics/SVG/1.1/DTD/svg11.dtd">
<svg version="1.1" id="Слой_1" xmlns="http://www.w3.org/2000/svg" xmlns:xlink="http://www.w3.org/1999/xlink" x="0px" y="0px"
	 width="173px" height="80px" viewBox="0 0 173 80" enable-background="new 0 0 173 80" xml:space="preserve">
<g>
	<path d="M1.593,50.037c-0.449,0-0.816-0.144-1.104-0.432s-0.432-0.656-0.432-1.104V3.574c0-0.448,0.144-0.816,0.432-1.104
		s0.655-0.432,1.104-0.432h11.808c1.824,0,3.535,0.312,5.137,0.936c1.6,0.624,3.023,1.544,4.271,2.76
		c1.279,1.217,2.256,2.601,2.928,4.152c0.672,1.552,1.008,3.192,1.008,4.92V37.27c0,1.728-0.336,3.368-1.008,4.92
		c-0.672,1.552-1.648,2.936-2.928,4.152c-1.248,1.215-2.672,2.136-4.271,2.76c-1.602,0.624-3.313,0.936-5.137,0.936H1.593z
		 M3.081,5.062v41.952h10.32c1.439,0,2.783-0.256,4.031-0.768c1.248-0.513,2.336-1.209,3.264-2.088
		c0.928-0.881,1.664-1.913,2.209-3.097c0.543-1.184,0.816-2.448,0.816-3.792V14.806c0-1.344-0.273-2.608-0.816-3.792
		c-0.545-1.184-1.281-2.215-2.209-3.096c-0.928-0.879-2.016-1.576-3.264-2.088c-1.248-0.511-2.592-0.768-4.031-0.768H3.081z"/>
	<path d="M57.609,47.014c0.415,0,0.768,0.145,1.056,0.432c0.288,0.288,0.433,0.641,0.433,1.057c0,0.447-0.145,0.815-0.433,1.104
		s-0.641,0.432-1.056,0.432H39.752c-1.024,0-1.976-0.191-2.855-0.576c-0.881-0.383-1.656-0.911-2.328-1.584
		c-0.672-0.672-1.2-1.447-1.584-2.327c-0.384-0.881-0.576-1.833-0.576-2.856V9.382c0-0.992,0.192-1.936,0.576-2.832
		c0.384-0.896,0.912-1.68,1.584-2.352c0.672-0.672,1.447-1.2,2.328-1.584c0.88-0.384,1.831-0.576,2.855-0.576h17.856
		c0.415,0,0.768,0.144,1.056,0.432s0.433,0.656,0.433,1.104c0,0.416-0.145,0.768-0.433,1.056c-0.288,0.288-0.641,0.432-1.056,0.432
		H39.752c-1.216,0-2.24,0.417-3.071,1.251c-0.833,0.834-1.248,1.861-1.248,3.08V24.55h16.224c0.447,0,0.816,0.15,1.104,0.449
		c0.288,0.299,0.433,0.653,0.433,1.063c0,0.41-0.145,0.764-0.433,1.063c-0.287,0.299-0.656,0.449-1.104,0.449H35.433v15.12
		c0,1.216,0.415,2.24,1.248,3.072c0.831,0.832,1.855,1.248,3.071,1.248H57.609z"/>
	<path d="M65.959,50.037c-1.024,0-1.976-0.191-2.855-0.576c-0.881-0.383-1.656-0.911-2.328-1.584
		c-0.672-0.672-1.2-1.447-1.584-2.327c-0.384-0.881-0.576-1.833-0.576-2.856V3.574c0-0.448,0.144-0.816,0.432-1.104
		s0.656-0.432,1.104-0.432c0.415,0,0.768,0.144,1.056,0.432s0.433,0.656,0.433,1.104v39.12c0,1.216,0.415,2.24,1.248,3.072
		c0.831,0.832,1.855,1.248,3.071,1.248h17.856c0.415,0,0.768,0.145,1.056,0.432c0.288,0.288,0.433,0.641,0.433,1.057
		c0,0.447-0.145,0.815-0.433,1.104s-0.641,0.432-1.056,0.432H65.959z"/>
	<path d="M109.207,2.038c0.416,0,0.768,0.144,1.057,0.432c0.287,0.288,0.432,0.656,0.432,1.104V37.27
		c0,1.728-0.336,3.368-1.008,4.92c-0.672,1.552-1.648,2.936-2.928,4.152c-1.248,1.215-2.672,2.136-4.271,2.76
		c-1.602,0.624-3.313,0.936-5.137,0.936s-3.537-0.312-5.137-0.936s-3.023-1.545-4.271-2.76c-1.28-1.217-2.256-2.601-2.928-4.152
		c-0.672-1.552-1.008-3.192-1.008-4.92V3.574c0-0.448,0.144-0.816,0.432-1.104s0.656-0.432,1.104-0.432
		c0.415,0,0.768,0.144,1.056,0.432s0.432,0.656,0.432,1.104V37.27c0,1.344,0.271,2.608,0.816,3.792
		c0.543,1.184,1.279,2.216,2.207,3.097c0.928,0.879,2.023,1.575,3.289,2.088c1.264,0.512,2.6,0.768,4.008,0.768
		c1.439,0,2.783-0.256,4.031-0.768c1.248-0.513,2.336-1.209,3.264-2.088c0.928-0.881,1.664-1.913,2.209-3.097
		c0.543-1.184,0.816-2.448,0.816-3.792V3.574c0-0.448,0.143-0.816,0.432-1.104C108.391,2.182,108.76,2.038,109.207,2.038z"/>
	<path fill="#DFBC55" d="M142.904,47.83c0.191,0.352,0.23,0.727,0.119,1.127s-0.359,0.697-0.744,0.889
		c-0.096,0.063-0.209,0.111-0.336,0.145c-0.127,0.031-0.24,0.047-0.336,0.047c-0.607,0-1.057-0.271-1.344-0.815l-10.512-19.92
		l-10.465,19.92c-0.287,0.544-0.736,0.815-1.344,0.815c-0.256,0-0.496-0.064-0.719-0.191c-0.385-0.191-0.633-0.488-0.744-0.889
		c-0.113-0.4-0.072-0.775,0.119-1.127l11.424-21.792L116.6,4.246c-0.191-0.352-0.232-0.728-0.119-1.128
		c0.111-0.4,0.359-0.696,0.744-0.888c0.352-0.192,0.727-0.231,1.127-0.12c0.4,0.113,0.711,0.36,0.936,0.744l10.465,19.92
		l10.512-19.92c0.191-0.384,0.488-0.631,0.889-0.744c0.398-0.111,0.775-0.072,1.127,0.12c0.385,0.192,0.633,0.488,0.744,0.888
		c0.111,0.4,0.072,0.776-0.119,1.128L131.48,26.038L142.904,47.83z"/>
	<path d="M171.223,47.014c0.416,0,0.768,0.145,1.057,0.432c0.287,0.288,0.432,0.641,0.432,1.057c0,0.447-0.145,0.815-0.432,1.104
		c-0.289,0.288-0.641,0.432-1.057,0.432h-17.855c-1.025,0-1.977-0.191-2.855-0.576c-0.881-0.383-1.656-0.911-2.328-1.584
		c-0.672-0.672-1.201-1.447-1.584-2.327c-0.385-0.881-0.576-1.833-0.576-2.856V9.382c0-0.992,0.191-1.936,0.576-2.832
		c0.383-0.896,0.912-1.68,1.584-2.352c0.672-0.672,1.447-1.2,2.328-1.584c0.879-0.384,1.83-0.576,2.855-0.576h17.855
		c0.416,0,0.768,0.144,1.057,0.432c0.287,0.288,0.432,0.656,0.432,1.104c0,0.416-0.145,0.768-0.432,1.056
		c-0.289,0.288-0.641,0.432-1.057,0.432h-17.855c-1.217,0-2.24,0.417-3.072,1.251s-1.248,1.861-1.248,3.08V24.55h16.225
		c0.447,0,0.816,0.15,1.104,0.449s0.432,0.653,0.432,1.063c0,0.41-0.145,0.764-0.432,1.063s-0.656,0.449-1.104,0.449h-16.225v15.12
		c0,1.216,0.416,2.24,1.248,3.072s1.855,1.248,3.072,1.248H171.223z"/>
</g>
<g>
	<path d="M30.516,65.793h0.736v5.09h8.755v-5.09h0.736v11.428h-0.736v-5.697h-8.755v5.697h-0.736V65.793z"/>
	<path d="M49.03,65.537c4.642,0,6.066,3.729,6.066,5.97s-1.425,5.97-6.066,5.97c-4.642,0-6.066-3.729-6.066-5.97
		S44.388,65.537,49.03,65.537z M49.03,76.837c3.441,0,5.33-2.593,5.33-5.33s-1.889-5.33-5.33-5.33s-5.33,2.593-5.33,5.33
		S45.589,76.837,49.03,76.837z"/>
	<path d="M56.115,65.793h9.956v0.64h-4.61v10.788h-0.736V66.433h-4.61V65.793z"/>
	<path d="M67.588,65.793h9.027v0.64h-8.291v4.546h7.955v0.641h-7.955v4.962h8.387v0.64h-9.124V65.793z"/>
	<path d="M78.756,65.793h0.736v10.788h7.491v0.64h-8.227V65.793z"/>
	<path d="M91.811,65.793h1.024l4.642,5.938l4.738-5.938h0.929l-5.298,6.627v4.801h-0.736V72.42L91.811,65.793z"/>
	<path d="M104.579,65.793h9.027v0.64h-8.291v4.546h7.955v0.641h-7.955v4.962h8.388v0.64h-9.124V65.793z"/>
	<path d="M115.747,65.793h5.843c2.192,0,3.857,0.624,3.857,3.025c0,1.184-0.721,2.465-2.338,2.832v0.033
		c1.393,0.176,2.129,1.136,2.146,2.368c0.032,2.081,0.097,2.753,0.32,3.169h-0.736c-0.208-0.191-0.272-0.912-0.32-2.656
		c-0.048-1.985-0.688-2.545-2.945-2.545h-5.09v5.201h-0.736V65.793z M116.483,71.379h4.978c0.721,0,3.25,0,3.25-2.609
		c0-1.856-1.441-2.337-3.058-2.337h-5.17V71.379z"/>
	<path d="M127.811,65.793h9.028v0.64h-8.292v4.546h7.955v0.641h-7.955v4.962h8.388v0.64h-9.124V65.793z"/>
	<path d="M137.875,65.793h0.832l4.658,10.5l4.657-10.5h0.833l-5.074,11.428h-0.832L137.875,65.793z"/>
	<path d="M154.58,65.793h0.833l5.25,11.428h-0.833l-1.681-3.682h-6.306l-1.682,3.682h-0.832L154.58,65.793z M152.132,72.899h5.729
		l-2.865-6.274L152.132,72.899z"/>
	<path d="M162.242,65.793h0.929l8.531,10.404h0.032V65.793h0.736v11.428h-0.929l-8.531-10.404h-0.032v10.404h-0.736V65.793z"/>
</g>
</svg>
